<!--?xml version="1.0" standalone="no"?-->
              <svg id="sw-js-blob-svg" viewBox="0 0 100 100" xmlns="http://www.w3.org/2000/svg" version="1.1">
                    <defs> 
                        <linearGradient id="sw-gradient" x1="0" x2="1" y1="1" y2="0">
                            <stop id="stop1" stop-color="rgba(0, 0, 0, 1)" offset="0%"></stop>
                            <stop id="stop2" stop-color="rgba(0, 0, 0, 1)" offset="100%"></stop>
                        </linearGradient>
                    </defs>
                <path fill="url(#sw-gradient)" d="M21.3,-31C27.5,-24.8,32.3,-18.4,35.6,-11C38.8,-3.5,40.5,5.1,39,13.6C37.5,22.1,32.8,30.4,25.8,36.4C18.8,42.5,9.4,46.2,0.3,45.8C-8.8,45.5,-17.7,41,-21.9,34C-26.1,27.1,-25.8,17.7,-26.5,9.9C-27.3,2.1,-29.2,-4,-28.8,-10.7C-28.4,-17.3,-25.8,-24.6,-20.6,-31.1C-15.4,-37.6,-7.7,-43.4,-0.1,-43.3C7.6,-43.2,15.1,-37.2,21.3,-31Z" width="100%" height="100%" transform="translate(50 50)" stroke-width="0" style="transition: 0.3s;" stroke="url(#sw-gradient)"></path>
              </svg>